<?xml version="1.0" standalone="no"?>
<!DOCTYPE svg PUBLIC "-//W3C//DTD SVG 20010904//EN"
 "http://www.w3.org/TR/2001/REC-SVG-20010904/DTD/svg10.dtd">
<svg version="1.0" xmlns="http://www.w3.org/2000/svg"
 width="475.000000pt" height="720.000000pt" viewBox="0 0 1024.000000 1024.000000"
 preserveAspectRatio="xMidYMid meet">


<g transform="translate(0.000000,1024.000000) scale(0.100000,-0.100000)"
fill="#F0ECD3" stroke="#000000" stroke-linejoin="miter" stroke-width="40px">
<path d="M5029 7819 c-2 -142 -10 -182 -59 -304 -11 -26 -9 -41 19 -121 51
-150 46 -166 -87 -245 -231 -140 -493 -315 -547 -366 -36 -33 -107 -125 -175
-225 -636 -931 -748 -1084 -840 -1141 -55 -34 -14 -33 74 3 42 16 89 30 104
30 16 0 35 6 44 13 9 6 117 163 240 347 123 184 304 448 402 585 97 138 181
257 186 265 8 13 11 12 24 -5 17 -23 146 -299 146 -312 -1 -4 -26 -24 -56 -43
-55 -35 -244 -211 -257 -240 -4 -8 -20 -33 -36 -55 -16 -22 -27 -42 -25 -44 2
-3 12 6 22 20 35 50 152 177 198 216 27 22 77 58 110 81 l61 41 54 -116 c37
-81 50 -118 41 -121 -16 -5 -42 -55 -42 -81 0 -41 22 -71 62 -82 21 -5 43 -7
48 -4 12 7 36 -31 60 -93 21 -55 13 -76 -26 -66 -17 4 -23 -2 -33 -35 -19 -66
-19 -66 -291 102 -80 50 -163 104 -184 121 -21 16 -37 24 -34 16 2 -8 76 -77
164 -153 87 -75 177 -155 198 -177 40 -39 40 -39 21 -60 -19 -21 -19 -21 7
-15 35 9 78 -29 57 -51 -13 -12 -53 -17 -314 -41 l-80 -7 105 -12 c58 -7 140
-13 183 -13 66 -1 77 -3 77 -18 -1 -42 -12 -45 -216 -61 -226 -16 -248 -13
-259 39 -6 26 -3 35 15 49 19 15 21 22 15 76 -5 44 -3 69 8 97 9 20 14 37 12
37 -2 0 -24 -33 -50 -74 -25 -41 -51 -79 -58 -84 -7 -6 -28 -7 -52 -2 -22 4
-32 8 -23 9 24 1 34 22 16 35 -12 10 -13 23 -1 101 8 58 20 100 33 117 21 28
24 45 14 72 -7 19 -45 21 -62 4 -17 -17 -15 -55 3 -65 14 -8 13 -20 -6 -101
-12 -51 -26 -92 -32 -92 -5 0 -2 -10 9 -22 10 -12 13 -18 7 -14 -9 5 -13 -1
-13 -18 0 -38 -45 -133 -67 -139 -18 -5 -294 -12 -365 -9 -26 2 -45 10 -63 30
-21 22 -27 24 -34 13 -5 -8 -33 -24 -62 -35 -51 -21 -76 -46 -46 -46 8 0 41
-14 72 -30 52 -28 60 -29 75 -15 13 12 49 15 191 15 193 -1 247 -9 269 -41 20
-29 89 -214 140 -374 140 -441 179 -555 237 -690 176 -406 344 -807 340 -812
-4 -3 -177 350 -177 360 0 11 -204 456 -246 537 -24 47 -87 144 -141 215 -246
331 -434 602 -492 710 -30 56 -27 41 18 -93 95 -283 310 -673 961 -1742 193
-317 337 -562 371 -635 21 -44 29 -76 30 -120 2 -106 15 -118 21 -19 5 86 8
96 58 190 29 54 79 142 110 194 31 52 95 160 142 240 47 80 169 284 272 453
102 169 186 315 186 323 0 8 5 20 10 27 9 10 36 50 82 121 4 6 32 56 63 111
31 55 61 107 66 115 5 8 30 51 55 95 26 44 65 114 87 155 22 41 49 86 59 99
10 13 18 32 18 42 0 11 4 19 9 19 16 0 191 409 191 447 0 4 -30 -40 -67 -98
-95 -148 -137 -208 -313 -444 -256 -345 -272 -371 -414 -693 -100 -226 -273
-593 -286 -606 -14 -14 41 117 259 622 78 181 151 369 182 465 62 199 201 614
241 720 17 42 37 81 46 86 30 15 84 20 260 23 152 2 175 1 186 -14 11 -15 19
-13 95 20 73 32 81 38 65 49 -10 7 -25 13 -33 13 -8 0 -35 10 -59 22 l-45 21
-20 -24 -19 -24 -207 4 c-113 1 -214 7 -223 12 -21 11 -35 55 -48 152 -6 43
-19 110 -29 148 -17 68 -17 69 3 83 18 11 19 18 11 42 -8 22 -18 30 -40 32
-27 3 -31 0 -33 -24 -1 -15 6 -39 15 -53 31 -47 57 -261 32 -261 -5 0 -7 5 -4
10 3 6 -1 10 -10 10 -11 0 -15 -5 -12 -14 4 -9 -3 -16 -15 -20 -28 -7 -37 0
-54 40 -8 19 -23 48 -33 65 l-19 32 5 -39 c3 -25 -1 -54 -11 -78 -20 -49 -20
-53 4 -59 25 -6 28 -58 4 -81 -27 -27 -63 -30 -234 -16 -183 14 -210 20 -210
49 0 23 22 27 186 37 171 9 199 19 84 28 -188 14 -292 29 -297 43 -8 20 26 53
55 53 24 0 24 1 8 19 -16 18 -13 22 81 107 54 49 144 129 201 178 56 49 101
91 98 93 -2 3 -58 -31 -123 -75 -130 -87 -295 -186 -336 -201 -24 -9 -28 -7
-42 19 -8 16 -15 38 -15 49 0 17 -5 20 -29 15 -16 -4 -32 -1 -35 5 -4 6 8 41
26 78 l33 68 48 3 c40 3 49 7 62 32 22 42 19 74 -11 109 l-25 31 41 92 c22 51
46 103 53 116 l13 22 72 -51 c40 -28 113 -90 162 -138 49 -48 83 -76 75 -62
-18 35 -178 188 -240 230 -27 19 -52 36 -54 37 -9 7 138 334 150 334 7 0 69
-81 145 -190 21 -30 107 -154 192 -275 85 -121 230 -333 322 -471 93 -138 176
-259 185 -268 9 -9 30 -16 47 -16 16 0 63 -13 105 -30 88 -35 110 -38 68 -8
-91 66 -135 126 -633 853 -102 149 -225 327 -275 398 l-90 127 -201 132 c-111
72 -248 160 -306 196 -58 35 -120 78 -138 95 -32 30 -33 35 -27 80 3 27 19 81
34 120 l28 71 -23 47 c-18 35 -28 83 -40 186 -9 76 -18 140 -20 142 -2 2 -4
-16 -5 -40z m23 -704 c13 -29 11 -32 -19 -37 -24 -3 -26 1 -17 37 8 32 21 32
36 0z m-66 -108 c18 -10 18 -73 0 -124 -7 -21 -32 -69 -55 -106 -22 -37 -41
-76 -41 -87 0 -12 13 -46 29 -78 58 -117 74 -175 69 -259 -7 -116 -34 -157
-151 -229 -85 -53 -92 -49 -159 86 -31 63 -57 119 -57 123 -1 12 117 64 196
86 40 11 57 20 42 20 -37 1 -171 -34 -217 -58 l-39 -20 -86 182 c-47 100 -88
192 -91 203 -8 26 13 33 89 34 28 1 65 6 83 13 35 13 232 145 316 213 40 32
52 37 55 25 2 -9 9 -20 17 -24z m460 -205 c11 -6 45 -14 75 -17 111 -12 119
-15 119 -35 0 -16 -161 -364 -174 -377 -2 -3 -51 11 -107 30 -94 32 -199 55
-199 44 0 -2 30 -12 68 -22 83 -22 222 -75 222 -85 0 -18 -108 -236 -123 -248
-19 -16 -49 -3 -140 61 -75 53 -99 97 -105 197 -5 82 6 120 71 261 l35 76 -48
80 c-54 90 -80 157 -80 208 0 34 12 46 25 25 12 -19 27 -10 23 14 -4 19 22 5
156 -89 89 -62 170 -117 182 -123z m-372 -662 c37 -52 34 -60 -12 -36 -24 12
-30 12 -47 0 -10 -8 -30 -14 -43 -14 -22 0 -21 3 20 50 24 27 44 49 45 50 0 0
17 -22 37 -50z m-115 -120 l41 -20 0 -80 0 -80 -58 0 c-32 0 -63 -5 -70 -12
-9 -9 -20 6 -46 64 -20 41 -38 95 -42 118 l-7 43 71 -6 c41 -3 87 -14 111 -27z
m328 -7 c-4 -20 -22 -70 -42 -111 -34 -73 -36 -74 -66 -68 -17 3 -48 6 -69 6
-35 0 -38 2 -44 35 -4 20 -4 56 0 81 5 37 12 48 38 61 47 24 76 31 135 32 l54
1 -6 -37z m-284 -325 c8 -23 -4 -37 -41 -49 -108 -35 -172 -123 -172 -235 0
-151 143 -276 284 -250 59 11 149 79 176 132 29 59 37 130 20 190 -18 64 -88
139 -151 161 -38 14 -49 22 -49 39 0 20 4 21 33 15 104 -24 191 -118 217 -236
12 -52 -6 -148 -37 -194 -15 -23 -14 -25 8 -43 13 -10 51 -35 84 -55 33 -20
94 -60 136 -90 64 -46 75 -58 72 -77 -7 -36 24 -93 53 -99 38 -7 73 4 80 25 5
16 8 17 17 5 13 -16 51 -32 43 -18 -3 5 4 11 15 14 12 3 18 10 15 15 -3 5 4
25 17 43 63 95 80 141 86 228 l6 86 38 3 37 3 0 -51 c0 -118 -61 -283 -156
-426 -98 -149 -264 -291 -418 -359 -115 -51 -316 -98 -316 -74 0 15 28 115 46
167 16 42 27 48 86 43 9 -1 19 3 23 9 3 6 -3 10 -15 10 -13 0 -20 5 -18 13 6
17 124 74 182 87 32 7 59 21 77 39 15 16 31 26 35 23 4 -4 3 -1 -1 7 -6 11 -4
13 11 7 35 -14 72 -18 77 -10 11 21 16 70 8 84 -8 12 -13 11 -31 -5 -16 -14
-17 -20 -8 -27 10 -6 10 -8 1 -8 -7 0 -10 -7 -7 -15 4 -8 1 -15 -5 -15 -6 0
-11 7 -11 15 0 8 -5 15 -11 15 -6 0 -8 -7 -5 -16 3 -9 2 -12 -5 -8 -6 3 -22
-4 -35 -17 -22 -21 -27 -22 -46 -10 -22 14 -29 9 -56 -35 -4 -6 -47 -30 -95
-54 -49 -23 -95 -49 -103 -58 -8 -8 -17 -12 -20 -9 -3 3 14 64 38 135 l43 130
-81 26 c-45 14 -89 24 -98 20 -19 -7 -19 -4 -6 30 5 14 16 26 24 26 8 0 56
-18 107 -40 51 -22 95 -38 98 -35 2 3 -17 27 -43 54 l-48 48 28 22 c14 11 40
21 56 21 25 0 28 3 23 20 -10 31 4 44 26 24 23 -21 25 -7 5 41 -8 19 -29 43
-47 54 l-33 20 -43 -35 c-72 -59 -125 -77 -209 -72 -53 4 -83 11 -115 31 -43
24 -110 87 -95 87 4 0 -2 12 -13 27 -31 39 -54 128 -47 176 17 106 82 191 181
238 70 33 72 33 78 17z m100 -101 c149 -63 167 -233 36 -339 -99 -80 -241 -35
-283 89 -21 63 -20 89 8 149 44 95 148 139 239 101z m-958 -183 c0 -38 -1 -39
-35 -39 -35 0 -35 0 -34 43 1 51 19 68 49 48 14 -10 20 -24 20 -52z m1828 -5
c2 -28 -2 -35 -21 -37 -32 -5 -52 15 -52 50 0 20 6 31 23 37 29 12 48 -7 50
-50z m-1358 -108 c41 -10 65 -33 65 -62 0 -9 -45 -54 -101 -100 -85 -70 -108
-84 -138 -85 -65 -1 -71 -4 -88 -39 -19 -39 -25 -42 -43 -20 -7 8 -16 12 -21
9 -5 -3 -9 -1 -9 3 0 5 -10 14 -22 22 -16 9 -12 2 11 -22 19 -20 37 -36 40
-35 16 2 18 -5 11 -37 -6 -27 -5 -35 6 -35 8 0 17 7 20 15 5 12 9 12 30 -1 14
-10 34 -14 47 -10 23 5 75 -33 197 -148 26 -24 52 -40 63 -38 9 2 17 -1 17 -7
0 -6 6 -11 13 -11 7 0 31 -13 53 -29 21 -16 58 -34 81 -40 23 -6 48 -18 56
-25 16 -16 73 -203 65 -212 -12 -11 -183 28 -269 62 -161 65 -275 145 -381
269 -88 102 -170 238 -203 337 -29 88 -59 227 -51 235 3 3 25 8 51 10 l45 6 0
-47 c0 -26 -7 -63 -15 -83 -16 -37 -8 -63 20 -63 7 0 12 -8 11 -17 0 -11 7
-18 19 -19 16 -1 21 6 23 39 2 26 -3 46 -14 58 -25 28 -30 101 -8 124 17 17
32 17 199 12 99 -4 198 -11 220 -16z m1241 -12 c8 -17 18 -63 20 -103 4 -61 2
-76 -18 -111 -13 -21 -43 -54 -66 -72 l-44 -33 -25 37 c-34 51 -41 55 -90 48
-40 -6 -44 -4 -142 80 -56 47 -101 91 -101 96 0 6 5 19 10 30 8 15 17 18 38
12 24 -6 25 -4 14 10 -14 16 -13 17 103 30 17 2 87 5 157 6 l127 1 17 -31z
m-1104 -90 c-18 -17 -33 -38 -33 -45 -1 -8 -2 -20 -3 -26 -1 -7 10 -13 24 -13
21 0 25 -5 25 -28 -1 -23 3 -27 19 -23 11 3 32 -4 49 -16 l30 -21 -53 -49
c-29 -27 -50 -51 -47 -54 3 -3 49 13 104 36 54 22 102 42 107 43 5 1 14 -11
21 -28 13 -29 12 -30 -13 -31 -24 -2 -160 -39 -168 -46 -1 -2 18 -63 42 -137
25 -73 42 -136 39 -139 -3 -3 -5 0 -5 6 0 6 -27 19 -61 29 -49 15 -72 29 -119
76 -34 35 -61 54 -65 48 -8 -13 -19 -6 -104 69 -34 30 -67 58 -73 61 -6 4 -4
16 7 32 11 18 15 36 10 55 -6 28 -1 33 99 103 108 76 188 128 195 129 3 0 -10
-14 -27 -31z m237 -328 c23 -44 39 -141 24 -141 -8 0 -41 91 -61 168 -8 28 19
9 37 -27z m100 -58 c-29 -103 -43 -116 -36 -35 4 43 13 74 29 97 32 47 34 29
7 -62z m-602 -279 c126 -83 306 -151 433 -163 l64 -6 12 -60 c30 -150 25 -295
-12 -336 -34 -38 -143 -15 -238 50 -25 18 -84 71 -131 119 -81 84 -87 92 -156
247 -39 88 -82 184 -96 214 l-24 53 47 -41 c25 -22 71 -57 101 -77z m1139
-105 c-79 -172 -103 -214 -152 -271 -114 -129 -239 -208 -331 -208 -49 0 -54
2 -70 33 -22 41 -24 223 -4 313 l13 62 77 12 c100 16 219 54 306 97 76 39 202
122 230 154 10 10 20 18 21 16 2 -2 -39 -95 -90 -208z m-918 -431 c28 -18 70
-45 94 -59 l44 -26 33 -154 c18 -85 42 -198 54 -253 20 -97 34 -108 37 -31 0
17 7 39 15 49 14 18 15 14 15 -43 0 -34 -5 -82 -11 -106 -9 -35 -8 -73 5 -172
16 -135 25 -368 13 -379 -4 -4 -7 1 -7 11 0 27 -49 197 -155 540 -51 165 -112
368 -135 450 -23 83 -46 162 -50 178 -5 15 -7 27 -5 27 2 0 26 -15 53 -32z
m695 -20 c-25 -91 -192 -645 -253 -838 -31 -102 -65 -219 -75 -260 -10 -41
-20 -69 -23 -62 -6 20 17 388 29 443 8 38 8 67 0 107 -6 30 -11 82 -11 115 0
52 2 58 15 47 8 -7 15 -27 16 -44 1 -17 4 -42 8 -56 7 -23 8 -21 14 15 3 22
21 112 40 200 20 88 41 186 47 218 l12 58 62 30 c34 17 76 41 92 54 16 14 32
24 35 25 4 0 0 -24 -8 -52z m-435 -101 c7 -5 10 -18 7 -27 -3 -9 1 -30 10 -46
20 -40 21 -153 0 -160 -8 -4 -15 -13 -15 -21 0 -8 5 -11 10 -8 6 3 13 0 16 -8
7 -19 -25 -82 -36 -71 -5 5 -23 82 -40 172 -17 89 -33 169 -37 178 -5 13 0 14
33 8 22 -3 45 -11 52 -17z m208 -14 c-27 -155 -60 -319 -67 -327 -8 -9 -39 44
-39 69 0 8 8 15 18 15 16 1 16 1 0 14 -14 10 -18 28 -18 83 0 38 4 73 9 79 5
5 11 24 13 43 2 29 8 36 38 47 51 18 53 17 46 -23z"/>
<path d="M4942 6950 c-12 -16 -18 -31 -13 -34 11 -7 26 11 35 42 9 28 6 27
-22 -8z"/>
<path d="M5000 5452 c-41 -33 -21 -102 30 -102 27 0 60 30 60 56 0 26 -32 64
-54 64 -8 0 -24 -8 -36 -18z"/>
<path d="M4610 5270 c-12 -8 -11 -10 8 -10 12 0 22 5 22 10 0 13 -11 13 -30 0z"/>
<path d="M4445 4800 c3 -5 8 -10 11 -10 2 0 4 5 4 10 0 6 -5 10 -11 10 -5 0
-7 -4 -4 -10z"/>
<path d="M4762 4684 c10 -10 20 -15 24 -12 3 4 -5 12 -18 18 -22 12 -22 12 -6
-6z"/>
<path d="M3670 6070 c0 -4 7 -13 15 -20 8 -7 15 -18 15 -26 0 -7 10 -20 23
-29 21 -15 23 -14 40 6 16 20 16 23 2 39 -17 19 -95 43 -95 30z"/>
<path d="M3785 6070 c-8 -13 4 -32 16 -25 12 8 12 35 0 35 -6 0 -13 -4 -16
-10z"/>
<path d="M6343 6052 c-57 -28 -64 -40 -34 -59 16 -10 23 -7 48 25 30 38 47 62
41 61 -2 0 -27 -12 -55 -27z"/>
<path d="M5831 6013 c7 -12 15 -20 18 -17 3 2 -3 12 -13 22 -17 16 -18 16 -5
-5z"/>
<path d="M5866 5955 c4 -8 10 -15 15 -15 4 0 6 7 3 15 -4 8 -10 15 -15 15 -4
0 -6 -7 -3 -15z"/>
<path d="M4153 5924 c-6 -13 -7 -24 -3 -24 9 0 25 39 18 45 -2 2 -8 -7 -15
-21z"/>
<path d="M5900 5892 c1 -14 39 -57 45 -50 3 3 -5 17 -19 31 -14 15 -26 23 -26
19z"/>
<path d="M4140 5882 c0 -6 -7 -18 -16 -26 -8 -9 -11 -16 -5 -16 13 0 35 39 27
48 -3 3 -6 0 -6 -6z"/>
<path d="M7238 5324 c-3 -3 -95 -7 -204 -10 -292 -6 -338 -11 -376 -34 -18
-11 -59 -25 -90 -31 -32 -6 -64 -17 -72 -23 -12 -10 -76 -166 -76 -187 0 -16
31 6 115 81 101 91 184 155 210 163 32 10 371 11 467 3 78 -7 88 -6 94 9 4 10
1 21 -7 26 -16 10 -53 12 -61 3z"/>
<path d="M2770 5300 c0 -6 98 -10 273 -10 l273 0 46 -29 c25 -16 87 -67 137
-113 51 -46 106 -92 122 -102 l31 -18 -7 23 c-4 13 -21 60 -39 104 l-31 80
-55 8 c-30 4 -84 21 -119 37 l-63 30 -284 0 c-183 0 -284 -4 -284 -10z"/>
<path d="M3980 4990 c-25 -25 -25 -32 -1 -61 19 -23 21 -23 48 -9 31 17 41 53
23 76 -17 20 -46 18 -70 -6z"/>
<path d="M6016 4994 c-11 -28 -6 -51 14 -69 18 -17 21 -17 45 -1 28 19 32 47
9 70 -20 21 -60 21 -68 0z"/>
<path d="M5014 1799 c-9 -19 -28 -49 -42 -67 -23 -31 -24 -36 -13 -75 7 -23
19 -55 26 -72 30 -71 35 -119 35 -332 0 -218 0 -221 -25 -257 -14 -20 -25 -42
-25 -49 0 -7 15 -42 34 -80 l34 -67 30 52 c40 71 41 76 9 129 -27 46 -27 46
-28 255 -1 220 6 265 58 399 l20 50 -48 74 -47 73 -18 -33z"/>
</g>
<g transform="translate(0.000000,1024.000000) scale(0.100000,-0.100000)"
fill="#000000" stroke="#F0ECD3" stroke-linejoin="miter" stroke-width="20px">
<path d="M5015 7853 c-7 -46 -15 -117 -19 -188 -2 -27 -15 -82 -30 -122 l-26
-72 30 -70 c19 -43 30 -87 30 -116 l0 -45 -277 -183 c-153 -101 -292 -188
-309 -195 -36 -15 -121 -96 -129 -123 -4 -11 -10 -19 -15 -19 -4 0 -13 -12
-18 -27 -6 -16 -58 -95 -116 -178 -57 -82 -149 -214 -202 -292 -89 -129 -100
-142 -122 -136 -15 3 -27 1 -32 -7 -7 -11 -16 -11 -48 -2 -53 16 -82 15 -82
-2 0 -8 5 -18 10 -21 6 -3 10 -14 10 -23 0 -9 14 -30 31 -48 l30 -31 -38 -62
c-62 -102 -331 -428 -379 -462 -38 -26 -44 -35 -44 -64 l0 -35 -275 0 c-290 0
-304 -3 -236 -43 25 -15 62 -17 286 -17 l257 0 76 -54 c88 -62 252 -198 299
-247 17 -19 95 -160 174 -314 91 -179 233 -431 394 -700 138 -231 299 -501
357 -600 58 -99 160 -267 227 -374 69 -109 135 -228 152 -272 28 -71 30 -87
28 -186 -2 -103 -1 -108 20 -111 20 -3 21 0 21 114 l0 117 69 131 c38 72 122
221 188 331 66 110 150 252 187 315 37 63 86 140 107 170 66 92 103 151 154
245 26 50 58 104 70 120 13 17 34 50 47 75 14 25 34 61 45 80 11 19 53 94 92
165 40 72 89 157 108 190 20 33 65 119 100 190 36 72 88 170 116 219 47 82 60
96 137 150 46 34 128 103 181 153 l97 93 286 -2 c253 -2 288 -1 302 14 15 15
15 18 -9 43 -22 24 -29 27 -68 21 -24 -4 -153 -9 -286 -11 -257 -5 -272 -2
-202 39 27 16 36 44 12 39 -6 -1 -39 22 -74 51 -48 40 -106 111 -222 269 -86
119 -157 219 -157 223 0 4 20 25 45 48 45 42 59 81 32 92 -8 3 -35 -4 -61 -16
-26 -11 -53 -20 -61 -20 -7 0 -122 153 -255 340 -133 187 -260 360 -281 384
-22 24 -85 72 -141 107 -135 83 -475 314 -511 348 -25 23 -28 31 -22 65 3 22
17 68 31 104 l26 64 -26 79 c-15 44 -32 131 -40 195 -8 76 -18 120 -28 131
-14 14 -17 11 -23 -24z m34 -98 c16 -136 28 -195 50 -236 19 -34 18 -35 -10
-106 -15 -39 -31 -93 -34 -120 -6 -45 -5 -50 27 -79 18 -17 76 -57 128 -89 52
-32 191 -121 308 -198 208 -137 213 -141 269 -221 80 -113 196 -281 285 -411
41 -60 109 -159 151 -220 42 -60 118 -171 169 -245 182 -268 257 -361 331
-412 52 -37 27 -36 -68 2 -42 17 -88 30 -103 30 -16 0 -35 6 -44 13 -9 6 -88
120 -176 252 -175 261 -215 319 -426 620 -185 265 -236 335 -245 335 -4 0 -22
-33 -40 -72 -62 -135 -111 -248 -111 -256 0 -4 21 -20 47 -37 94 -59 307 -281
248 -259 -8 4 -15 12 -15 19 0 17 -149 153 -231 211 l-63 44 -13 -22 c-7 -13
-31 -65 -53 -116 l-41 -92 25 -31 c30 -35 33 -67 11 -109 -13 -25 -22 -29 -62
-32 l-48 -3 -33 -68 c-18 -37 -30 -72 -26 -78 3 -6 19 -9 35 -5 24 5 29 2 29
-15 0 -11 7 -33 15 -49 13 -25 19 -28 38 -21 41 16 220 123 340 203 65 44 121
78 123 75 3 -2 -28 -33 -68 -68 -40 -35 -131 -115 -201 -177 -123 -110 -127
-115 -111 -133 16 -18 16 -19 -8 -19 -29 0 -63 -33 -55 -53 5 -14 104 -28 302
-44 74 -5 84 -8 55 -14 -19 -4 -82 -10 -140 -13 -170 -10 -190 -14 -190 -37 0
-29 27 -35 217 -49 201 -15 228 -10 239 45 7 38 0 55 -22 55 -18 0 -18 9 2 56
10 24 14 53 11 78 l-5 39 19 -32 c10 -17 25 -46 33 -65 17 -40 26 -47 54 -40
12 4 19 11 15 20 -3 9 1 14 12 14 10 0 14 -5 9 -12 -6 -10 -4 -10 7 -1 19 18
-5 206 -32 249 -10 17 -19 38 -19 47 0 8 -18 34 -40 56 -22 22 -40 47 -40 56
0 18 -18 52 -44 82 -11 13 -16 26 -12 30 5 5 13 0 20 -10 6 -10 19 -28 28 -39
9 -11 20 -32 23 -48 8 -36 50 -79 84 -86 42 -9 56 -19 59 -47 2 -17 -3 -30
-16 -38 -15 -10 -18 -18 -11 -33 8 -22 33 -146 44 -226 11 -77 25 -111 52
-121 13 -5 114 -9 225 -9 193 0 200 1 217 22 l18 21 45 -21 c24 -12 51 -22 59
-22 8 0 24 -6 35 -14 19 -14 19 -15 -1 -22 -11 -4 -49 -19 -85 -35 -57 -24
-65 -26 -76 -12 -9 14 -37 16 -185 14 -96 -1 -184 -4 -196 -7 -86 -16 -77 -4
-140 -183 -58 -167 -148 -437 -213 -641 -29 -91 -102 -280 -162 -420 -315
-728 -290 -670 -282 -670 9 0 245 503 319 680 87 208 147 306 378 615 82 110
203 281 270 380 66 99 116 169 112 155 -24 -81 -85 -231 -137 -340 -54 -112
-88 -175 -221 -409 -20 -36 -45 -82 -55 -101 -9 -19 -21 -39 -25 -45 -4 -5
-35 -55 -67 -110 -69 -115 -78 -129 -105 -170 -11 -16 -20 -34 -21 -40 -1 -6
-28 -53 -59 -105 -32 -52 -73 -120 -90 -150 -18 -30 -61 -102 -97 -160 -130
-211 -429 -721 -475 -810 -42 -83 -47 -99 -52 -178 -5 -96 -18 -81 -20 23 -1
44 -9 76 -30 120 -32 68 -174 312 -341 585 -214 351 -608 1009 -651 1087 -177
320 -289 552 -339 701 -46 138 -49 153 -19 97 58 -107 217 -339 449 -650 157
-212 182 -254 285 -485 26 -58 60 -134 77 -170 17 -36 43 -94 58 -130 40 -96
183 -391 187 -387 3 4 -174 426 -321 766 -76 173 -130 327 -216 612 -97 318
-169 502 -205 522 -13 8 -92 13 -218 15 -172 3 -201 2 -216 -12 -17 -15 -22
-14 -76 14 -31 16 -64 30 -72 30 -30 0 -5 26 46 46 30 12 57 28 62 35 7 11 14
8 34 -13 29 -32 31 -32 275 -28 80 1 152 6 161 11 25 13 62 113 57 154 -2 19
-1 36 2 37 3 2 16 43 28 92 21 80 22 90 8 98 -19 11 -21 49 -4 66 19 19 52 14
67 -9 11 -19 10 -25 -10 -52 -37 -51 -63 -209 -38 -234 14 -14 3 -33 -19 -34
-9 -1 1 -5 23 -9 24 -5 45 -4 52 2 7 5 33 43 58 84 26 41 48 74 50 74 2 0 -3
-17 -11 -37 -12 -27 -14 -53 -9 -103 6 -63 5 -68 -14 -73 -23 -6 -26 -22 -11
-61 13 -36 48 -39 264 -23 193 15 205 19 206 60 0 14 -10 17 -62 17 -34 0
-114 5 -177 12 -104 11 -111 13 -71 19 25 4 108 12 185 18 157 12 183 23 145
61 -16 16 -28 20 -48 15 -26 -6 -26 -6 -7 15 19 21 19 21 -21 60 -21 22 -111
102 -198 177 -88 76 -162 145 -164 153 -3 8 12 1 34 -16 39 -30 82 -58 274
-176 175 -108 183 -110 201 -47 10 33 16 39 33 35 35 -9 47 10 32 52 -20 56
-52 107 -65 104 -7 -1 -29 2 -50 8 -39 10 -61 40 -61 81 0 26 26 76 42 81 9 3
-4 40 -41 121 -50 109 -64 130 -73 109 -1 -5 -32 -28 -68 -52 -66 -45 -184
-156 -232 -220 -14 -19 -40 -53 -57 -74 -18 -22 -40 -58 -50 -81 -10 -24 -24
-46 -30 -49 -15 -10 -13 5 4 28 8 11 15 26 15 33 0 21 117 193 147 217 15 12
58 52 95 87 37 36 92 80 122 99 30 19 55 39 56 43 0 12 -129 289 -146 312 -14
18 -16 18 -24 4 -5 -9 -94 -135 -197 -280 -103 -145 -287 -412 -408 -594
l-221 -330 -44 -5 c-25 -3 -76 -18 -113 -34 -82 -33 -120 -32 -65 2 74 46 195
202 473 610 28 43 97 142 153 222 55 80 153 222 216 315 64 94 131 187 149
207 17 21 88 73 157 116 396 250 497 315 513 334 24 29 21 67 -15 174 l-32 94
22 47 c28 61 39 115 48 231 3 51 8 91 9 90 2 -2 8 -48 14 -103z m-1327 -1689
c52 -22 62 -39 40 -66 -22 -28 -34 -22 -67 31 -36 56 -33 60 27 35z m88 0 c0
-8 -4 -17 -9 -21 -12 -7 -24 12 -16 25 9 15 25 12 25 -4z m2583 2 c-5 -7 -22
-30 -37 -50 -24 -32 -30 -36 -47 -25 -30 19 -23 31 34 59 61 31 62 32 50 16z
m912 -758 c17 -18 16 -19 -8 -25 -14 -4 -63 -3 -109 2 -45 4 -166 6 -268 3
l-185 -5 -60 -47 c-33 -25 -77 -62 -97 -81 -58 -56 -150 -129 -155 -123 -9 9
60 187 76 195 9 5 41 14 71 20 30 7 70 21 88 31 39 23 88 28 371 34 112 3 206
8 209 11 12 12 50 4 67 -15z m-3905 -29 c35 -17 87 -33 117 -37 47 -6 56 -10
70 -37 19 -37 64 -169 60 -174 -7 -6 -81 53 -160 126 -43 40 -99 85 -124 101
l-47 30 -273 0 c-175 0 -273 4 -273 10 0 6 101 10 284 10 l284 0 62 -29z m656
-296 c8 -34 0 -53 -31 -67 -21 -9 -28 -8 -45 7 -25 23 -25 40 0 65 29 29 68
26 76 -5z m2028 9 c23 -22 20 -51 -8 -69 -41 -27 -75 6 -62 61 7 28 46 33 70
8z"/>
<path d="M5016 7115 c-8 -32 -5 -41 14 -37 26 6 32 19 21 41 -15 28 -27 27
-35 -4z"/>
<path d="M4924 7016 c-17 -17 -96 -75 -175 -129 -135 -91 -149 -98 -204 -103
-118 -10 -127 -13 -120 -37 4 -12 45 -104 92 -204 l86 -182 38 19 c48 25 175
60 214 59 22 0 11 -6 -38 -20 -79 -22 -197 -74 -196 -86 0 -4 26 -60 57 -123
67 -136 73 -139 162 -84 115 71 150 130 150 252 0 66 -22 136 -81 253 l-28 56
25 44 c66 116 94 185 94 227 0 29 -5 44 -15 48 -8 4 -15 15 -15 25 0 25 -9 22
-46 -15z m40 -58 c-9 -31 -24 -49 -35 -42 -5 3 1 18 13 34 28 35 31 36 22 8z"/>
<path d="M5108 7013 c5 -26 0 -28 -30 -12 -20 11 -21 10 -15 -43 5 -57 34
-123 93 -215 l33 -52 -52 -113 c-51 -111 -52 -115 -52 -208 0 -120 18 -158
102 -217 90 -62 122 -77 139 -62 14 12 124 232 124 248 0 9 -129 59 -230 90
l-65 20 50 -5 c28 -3 97 -21 154 -40 57 -19 105 -33 107 -32 12 13 174 364
174 379 0 19 -14 23 -118 33 -63 6 -87 19 -275 152 -120 85 -143 97 -139 77z"/>
<path d="M4991 6138 c-42 -46 -43 -48 -19 -48 13 0 33 6 43 14 17 12 23 12 47
0 46 -24 50 -16 16 32 -18 25 -35 47 -38 48 -3 1 -25 -19 -49 -46z"/>
<path d="M4784 6009 c4 -23 22 -76 42 -117 26 -58 37 -73 46 -64 7 7 38 12 70
12 l58 0 0 74 c0 54 -4 79 -15 90 -22 21 -109 46 -163 46 l-45 0 7 -41z"/>
<path d="M5160 6041 c-67 -21 -87 -39 -94 -85 -4 -25 -4 -61 0 -81 6 -33 9
-35 44 -35 21 0 52 -3 69 -6 30 -6 32 -5 66 68 20 41 38 91 42 111 l6 37 -54
-1 c-30 0 -65 -4 -79 -8z"/>
<path d="M4925 5671 c-97 -46 -159 -127 -179 -232 -9 -48 10 -130 39 -174 14
-19 21 -35 18 -35 -15 0 55 -63 96 -87 66 -40 171 -44 242 -10 30 13 69 39 87
56 32 30 34 30 62 16 34 -18 56 -47 66 -90 7 -29 7 -30 -13 -12 -28 25 -36 21
-29 -13 5 -27 3 -30 -20 -30 -14 0 -39 -10 -56 -21 l-30 -22 48 -48 c26 -27
45 -51 43 -54 -3 -3 -48 13 -99 35 -52 22 -100 40 -107 40 -7 0 -18 -12 -23
-26 -13 -33 -13 -34 4 -28 8 3 52 -7 98 -22 l84 -27 -37 -106 c-20 -58 -39
-119 -43 -136 -7 -28 -6 -29 11 -14 27 23 102 63 155 83 35 13 49 24 57 47 10
29 34 39 46 19 10 -16 17 -13 97 54 75 63 76 64 60 87 -9 13 -17 40 -18 62 -1
35 -7 42 -64 83 -34 25 -94 65 -133 90 -40 24 -83 52 -96 62 -22 18 -23 20 -8
43 9 13 23 50 31 82 25 97 0 184 -78 265 -45 48 -83 71 -133 83 -29 6 -33 5
-33 -15 0 -17 11 -25 49 -39 63 -22 133 -97 151 -161 30 -108 -10 -214 -103
-276 -93 -63 -175 -65 -261 -9 -53 36 -80 70 -101 130 -48 135 18 269 158 320
28 10 37 19 37 36 0 29 -2 28 -75 -6z"/>
<path d="M4952 5579 c-50 -25 -75 -54 -98 -115 -36 -95 26 -218 126 -248 69
-21 120 -5 181 53 77 75 89 165 32 245 -56 79 -157 106 -241 65z m118 -129
c11 -11 20 -31 20 -44 0 -26 -33 -56 -60 -56 -51 0 -71 69 -30 102 29 23 45
23 70 -2z"/>
<path d="M4090 5455 c-7 -8 -13 -32 -14 -53 -1 -36 0 -37 34 -37 34 0 35 1 35
39 0 28 -6 42 -21 53 -18 12 -23 11 -34 -2z"/>
<path d="M5923 5449 c-17 -6 -23 -17 -23 -37 0 -35 20 -55 52 -50 19 2 23 9
21 37 -2 43 -21 62 -50 50z"/>
<path d="M4196 5295 c-14 -15 -17 -28 -12 -64 3 -24 13 -53 22 -62 11 -12 15
-29 12 -49 -4 -26 4 -39 54 -93 l59 -62 19 37 c22 41 46 53 90 43 25 -6 41 4
134 81 58 48 106 94 106 103 0 24 -30 60 -36 44 -3 -7 -15 -13 -27 -13 -22 1
-22 1 -2 12 19 11 18 12 -10 20 -17 5 -111 11 -210 15 -167 6 -182 5 -199 -12z"/>
<path d="M5555 5303 c-116 -13 -117 -14 -103 -30 11 -14 10 -16 -14 -10 -21 6
-30 3 -38 -12 -5 -11 -10 -24 -10 -30 0 -5 46 -49 101 -96 95 -81 104 -86 136
-80 49 9 69 -1 96 -46 l24 -39 29 22 c39 30 72 67 91 102 19 37 13 148 -12
195 l-16 31 -127 -1 c-70 -1 -140 -4 -157 -6z"/>
<path d="M4077 5293 c-16 -4 -17 -11 -12 -46 34 -198 106 -355 238 -515 109
-131 236 -222 403 -288 86 -33 250 -71 262 -60 8 9 -49 196 -65 212 -8 8 -32
17 -54 20 -22 4 -46 12 -53 18 -16 15 -45 33 -76 48 -14 7 -28 17 -32 23 -4 5
-10 6 -14 2 -4 -4 -28 12 -53 36 -135 122 -174 152 -198 149 -14 -2 -35 4 -48
12 -20 13 -24 13 -29 1 -3 -8 -16 -15 -28 -14 -13 0 -17 3 -10 6 29 11 12 52
-43 100 -50 44 -73 74 -42 57 9 -5 9 -3 -1 7 -7 8 -20 14 -30 14 -10 0 -16 7
-16 18 1 9 -4 17 -11 17 -28 0 -36 26 -20 63 8 20 15 57 15 82 0 44 0 45 -32
44 -18 -1 -41 -3 -51 -6z m383 -493 c0 -5 -2 -10 -4 -10 -3 0 -8 5 -11 10 -3
6 -1 10 4 10 6 0 11 -4 11 -10z"/>
<path d="M5915 5288 c-2 -7 -6 -49 -8 -93 -4 -64 -11 -92 -37 -140 -17 -33
-35 -64 -41 -69 -5 -6 -9 -18 -9 -27 0 -9 -6 -22 -14 -29 -8 -6 -12 -18 -9
-27 4 -11 2 -14 -8 -11 -8 3 -13 10 -12 16 1 5 -6 8 -16 5 -10 -3 -22 0 -26 7
-5 8 -11 6 -20 -6 -7 -11 -26 -18 -49 -18 -38 -1 -39 -2 -51 -71 -9 -54 -10
-55 -50 -44 -29 8 -39 6 -65 -12 -16 -13 -30 -29 -30 -36 0 -8 -13 -13 -35
-13 -19 0 -43 -4 -53 -9 -9 -4 -48 -23 -85 -41 -76 -37 -90 -50 -53 -50 14 0
28 -4 31 -10 4 -6 -16 -10 -53 -10 -56 0 -60 -2 -70 -27 -15 -37 -52 -168 -52
-181 0 -23 172 15 297 66 207 84 416 286 514 497 41 87 79 228 79 292 l0 53
-35 0 c-20 0 -37 -6 -40 -12z"/>
<path d="M4732 5192 c-23 -15 -90 -60 -148 -101 -100 -70 -105 -75 -99 -103 4
-18 1 -37 -8 -51 -14 -22 -11 -25 62 -90 102 -91 99 -88 105 -74 3 8 17 -1 38
-24 18 -20 45 -39 59 -42 14 -4 37 -17 50 -29 14 -13 44 -31 66 -40 l41 -16
-8 27 c-5 14 -25 73 -45 130 -19 57 -34 106 -32 108 5 4 127 41 165 50 24 6
27 15 12 43 -9 17 -15 16 -97 -20 -49 -20 -98 -41 -110 -44 -35 -11 -19 16 34
60 l46 38 -29 22 c-17 15 -36 21 -49 18 -17 -4 -21 -1 -20 23 0 23 -4 28 -25
28 -14 0 -25 6 -24 13 1 6 2 18 3 26 0 7 15 28 33 45 39 38 35 38 -20 3z"/>
<path d="M4952 4888 c2 -7 14 -48 27 -90 27 -87 47 -104 37 -32 -7 55 -40 134
-56 134 -6 0 -10 -6 -8 -12z"/>
<path d="M5082 4865 c-16 -23 -25 -54 -29 -97 -7 -81 7 -68 36 35 27 91 25
109 -7 62z"/>
<path d="M4354 4610 c8 -19 52 -117 98 -217 81 -178 85 -184 167 -268 46 -47
102 -99 126 -115 95 -65 205 -89 239 -51 36 40 39 244 6 364 -11 36 -12 37
-57 37 -148 0 -424 125 -561 254 l-33 31 15 -35z"/>
<path d="M5650 4574 c-124 -101 -327 -190 -496 -216 l-72 -11 -13 -61 c-15
-65 -18 -244 -6 -288 18 -67 83 -77 185 -28 81 38 152 94 226 178 49 56 73
100 152 271 51 113 93 205 91 206 -1 1 -31 -22 -67 -51z"/>
<path d="M4681 3918 c35 -128 107 -369 192 -643 58 -187 118 -394 130 -450 11
-48 6 235 -5 323 -14 106 -14 163 -3 292 7 78 7 84 -9 71 -9 -7 -16 -28 -17
-45 0 -17 -4 -39 -8 -50 -7 -19 -9 -13 -82 333 l-33 154 -44 26 c-25 14 -67
41 -95 59 -27 17 -50 32 -52 32 -1 0 10 -46 26 -102z"/>
<path d="M5376 3995 c-16 -13 -58 -37 -92 -54 l-62 -30 -12 -58 c-6 -32 -27
-130 -47 -218 -19 -88 -37 -178 -40 -200 -5 -31 -8 -35 -14 -20 -4 11 -8 36
-8 56 -1 20 -8 42 -16 49 -13 11 -15 5 -15 -47 0 -33 5 -85 11 -115 8 -41 8
-69 0 -107 -11 -54 -35 -440 -28 -448 3 -2 12 29 22 69 10 40 41 150 70 243
192 619 276 905 266 905 -3 -1 -19 -11 -35 -25z"/>
<path d="M4885 3878 c2 -7 18 -84 35 -171 36 -190 41 -203 65 -158 18 37 14
64 -10 55 -11 -4 -14 -2 -9 9 3 9 12 18 20 21 20 8 19 122 -2 161 -8 16 -13
37 -11 47 6 22 -9 34 -55 42 -29 5 -37 4 -33 -6z"/>
<path d="M5130 3876 c-30 -11 -36 -18 -38 -47 -2 -19 -8 -38 -13 -43 -5 -6 -9
-41 -9 -79 0 -55 4 -73 18 -83 16 -13 16 -13 -2 -14 -15 0 -17 -5 -11 -27 6
-27 31 -61 38 -52 3 4 67 339 67 352 0 9 -7 8 -50 -7z"/>
<path d="M4988 1816 c-16 -19 -28 -40 -28 -45 0 -6 -4 -11 -8 -11 -5 0 -16
-16 -25 -35 -15 -31 -15 -40 -4 -63 17 -33 52 -142 65 -202 6 -25 9 -129 9
-231 -2 -183 -2 -186 -28 -220 -27 -36 -28 -46 -8 -119 22 -79 63 -131 90
-115 15 10 79 131 79 150 0 10 -13 39 -28 64 l-28 46 -1 205 c-1 120 3 207 9
211 5 3 15 30 23 60 8 30 23 81 35 113 24 66 18 98 -27 147 -12 14 -23 30 -23
35 0 17 -35 44 -56 44 -10 0 -31 -16 -46 -34z m103 -76 c35 -55 36 -58 22 -91
-8 -19 -26 -72 -39 -119 -22 -76 -25 -102 -24 -245 1 -88 1 -177 0 -198 -1
-26 10 -61 31 -102 l32 -63 -39 -63 -38 -63 -33 69 c-31 66 -42 115 -25 115 4
0 15 14 25 31 15 26 17 59 17 242 l0 212 -36 115 -36 116 43 68 c37 57 45 65
54 51 5 -10 26 -43 46 -75z"/>
</g>
</svg>
